<!-- This is a modified version of the official white GGJ logo. It has been put through an online resizer in order to change from CSS colors to inline colors
because CSS colors are not handled by Flutter properly. -->

<?xml version="1.0" encoding="UTF-8"?>
<svg xmlns="http://www.w3.org/2000/svg" xmlns:xlink="http://www.w3.org/1999/xlink" width="280px" height="150px" viewBox="0 0 280 150" version="1.1">
<g id="surface1">
<path style=" stroke:none;fill-rule:nonzero;fill:rgb(100%,100%,100%);fill-opacity:1;" d="M 18.675781 140.4375 L 18.675781 145.09375 C 18.675781 145.90625 18.453125 146.523438 17.863281 147.085938 C 15.988281 148.792969 13.523438 149.886719 10.5 149.886719 C 4.703125 149.859375 0 145.652344 0 139.347656 C 0 133.007812 4.703125 128.859375 10.527344 128.859375 C 13.578125 128.859375 15.792969 129.925781 17.5 131.636719 C 17.78125 131.886719 17.921875 132.253906 17.921875 132.644531 C 17.921875 133.429688 17.277344 134.046875 16.492188 134.046875 C 16.128906 134.046875 15.765625 133.90625 15.484375 133.652344 C 14.253906 132.421875 12.515625 131.578125 10.527344 131.578125 C 6.300781 131.578125 3.136719 134.804688 3.136719 139.375 C 3.136719 143.914062 6.300781 147.195312 10.527344 147.195312 C 12.769531 147.195312 14.699219 146.101562 15.652344 145.175781 L 15.652344 141.53125 L 10.332031 141.53125 C 9.605469 141.53125 8.988281 140.914062 8.988281 140.160156 C 8.988281 139.429688 9.605469 138.839844 10.332031 138.839844 L 17.078125 138.839844 C 18.117188 138.8125 18.675781 139.402344 18.675781 140.4375 Z M 18.675781 140.4375 "/>
<path style=" stroke:none;fill-rule:nonzero;fill:rgb(100%,100%,100%);fill-opacity:1;" d="M 22.566406 147.871094 L 22.566406 130.542969 C 22.566406 129.730469 23.269531 129.027344 24.109375 129.027344 C 24.921875 129.027344 25.59375 129.730469 25.59375 130.542969 L 25.59375 146.804688 L 33.601562 146.804688 C 34.328125 146.804688 34.972656 147.390625 34.972656 148.121094 C 34.972656 148.878906 34.328125 149.496094 33.601562 149.496094 L 24.21875 149.496094 C 23.15625 149.46875 22.566406 148.878906 22.566406 147.871094 Z M 22.566406 147.871094 "/>
<path style=" stroke:none;fill-rule:nonzero;fill:rgb(100%,100%,100%);fill-opacity:1;" d="M 46.5625 128.832031 C 52.613281 128.832031 56.785156 133.316406 56.785156 139.316406 C 56.785156 145.347656 52.613281 149.804688 46.5625 149.804688 C 40.515625 149.804688 36.34375 145.316406 36.34375 139.316406 C 36.34375 133.316406 40.515625 128.832031 46.5625 128.832031 Z M 46.5625 131.550781 C 42.222656 131.550781 39.480469 134.859375 39.480469 139.347656 C 39.480469 143.777344 42.222656 147.140625 46.5625 147.140625 C 50.847656 147.140625 53.648438 143.804688 53.648438 139.347656 C 53.648438 134.859375 50.847656 131.550781 46.5625 131.550781 Z M 46.5625 131.550781 "/>
<path style=" stroke:none;fill-rule:nonzero;fill:rgb(100%,100%,100%);fill-opacity:1;" d="M 60.453125 147.871094 L 60.453125 130.792969 C 60.453125 129.757812 61.039062 129.167969 62.105469 129.167969 L 69.972656 129.167969 C 73.585938 129.167969 75.683594 131.382812 75.683594 134.328125 C 75.683594 136.878906 74.003906 138.589844 72.15625 138.980469 C 74.3125 139.316406 76.074219 141.503906 76.074219 143.972656 C 76.074219 147.167969 73.949219 149.4375 70.222656 149.4375 L 62.105469 149.4375 C 61.039062 149.46875 60.453125 148.878906 60.453125 147.871094 Z M 69.382812 137.777344 C 71.429688 137.777344 72.546875 136.484375 72.546875 134.832031 C 72.546875 133.148438 71.429688 131.859375 69.382812 131.859375 L 63.476562 131.859375 L 63.476562 137.804688 L 69.382812 137.804688 Z M 69.523438 146.804688 C 71.652344 146.804688 72.941406 145.597656 72.941406 143.609375 C 72.941406 141.925781 71.792969 140.46875 69.523438 140.46875 L 63.476562 140.46875 L 63.476562 146.804688 Z M 69.523438 146.804688 "/>
<path style=" stroke:none;fill-rule:nonzero;fill:rgb(100%,100%,100%);fill-opacity:1;" d="M 96.992188 148.066406 C 96.992188 148.90625 96.292969 149.609375 95.453125 149.609375 C 94.78125 149.609375 94.21875 149.1875 94.023438 148.625 L 92.734375 145.261719 L 82.683594 145.261719 L 81.394531 148.625 C 81.171875 149.1875 80.613281 149.609375 79.96875 149.609375 C 79.128906 149.609375 78.429688 148.90625 78.429688 148.066406 C 78.429688 147.871094 78.484375 147.671875 78.539062 147.476562 L 85.230469 130.710938 C 85.597656 129.730469 86.574219 129 87.695312 129 C 88.84375 129 89.796875 129.730469 90.1875 130.710938 L 96.878906 147.476562 C 96.90625 147.644531 96.992188 147.871094 96.992188 148.066406 Z M 91.726562 142.570312 L 87.695312 131.832031 L 83.691406 142.570312 Z M 91.726562 142.570312 "/>
<path style=" stroke:none;fill-rule:nonzero;fill:rgb(100%,100%,100%);fill-opacity:1;" d="M 100.070312 147.871094 L 100.070312 130.542969 C 100.070312 129.730469 100.773438 129.027344 101.613281 129.027344 C 102.425781 129.027344 103.097656 129.730469 103.097656 130.542969 L 103.097656 146.804688 L 111.074219 146.804688 C 111.804688 146.804688 112.449219 147.390625 112.449219 148.121094 C 112.449219 148.878906 111.804688 149.496094 111.074219 149.496094 L 101.695312 149.496094 C 100.660156 149.46875 100.070312 148.878906 100.070312 147.871094 Z M 100.070312 147.871094 "/>
<path style=" stroke:none;fill-rule:nonzero;fill:rgb(100%,100%,100%);fill-opacity:1;" d="M 141.34375 140.4375 L 141.34375 145.09375 C 141.34375 145.90625 141.121094 146.523438 140.53125 147.085938 C 138.65625 148.792969 136.191406 149.886719 133.167969 149.886719 C 127.371094 149.886719 122.640625 145.683594 122.640625 139.347656 C 122.640625 133.007812 127.34375 128.859375 133.167969 128.859375 C 136.21875 128.859375 138.433594 129.925781 140.140625 131.636719 C 140.421875 131.886719 140.558594 132.253906 140.558594 132.644531 C 140.558594 133.429688 139.914062 134.046875 139.132812 134.046875 C 138.769531 134.046875 138.402344 133.90625 138.125 133.652344 C 136.890625 132.421875 135.15625 131.578125 133.167969 131.578125 C 128.941406 131.578125 125.777344 134.804688 125.777344 139.375 C 125.777344 143.914062 128.941406 147.195312 133.167969 147.195312 C 135.40625 147.195312 137.339844 146.101562 138.292969 145.175781 L 138.292969 141.53125 L 132.972656 141.53125 C 132.242188 141.53125 131.628906 140.914062 131.628906 140.160156 C 131.628906 139.429688 132.242188 138.839844 132.972656 138.839844 L 139.71875 138.839844 C 140.785156 138.8125 141.34375 139.402344 141.34375 140.4375 Z M 141.34375 140.4375 "/>
<path style=" stroke:none;fill-rule:nonzero;fill:rgb(100%,100%,100%);fill-opacity:1;" d="M 162.261719 148.066406 C 162.261719 148.90625 161.558594 149.609375 160.71875 149.609375 C 160.046875 149.609375 159.488281 149.1875 159.292969 148.625 L 158.003906 145.261719 L 147.953125 145.261719 L 146.664062 148.625 C 146.441406 149.1875 145.878906 149.609375 145.234375 149.609375 C 144.394531 149.609375 143.695312 148.90625 143.695312 148.066406 C 143.695312 147.871094 143.753906 147.671875 143.808594 147.476562 L 150.5 130.710938 C 150.863281 129.730469 151.84375 129 152.964844 129 C 154.113281 129 155.0625 129.730469 155.457031 130.710938 L 162.148438 147.476562 C 162.203125 147.644531 162.261719 147.871094 162.261719 148.066406 Z M 156.996094 142.570312 L 152.964844 131.832031 L 148.960938 142.570312 Z M 156.996094 142.570312 "/>
<path style=" stroke:none;fill-rule:nonzero;fill:rgb(100%,100%,100%);fill-opacity:1;" d="M 182.8125 148.09375 L 182.8125 133.347656 L 176.429688 149.046875 C 176.289062 149.410156 175.980469 149.636719 175.617188 149.636719 C 175.222656 149.636719 174.914062 149.410156 174.804688 149.046875 L 168.421875 133.347656 L 168.421875 148.09375 C 168.421875 148.90625 167.746094 149.609375 166.9375 149.609375 C 166.097656 149.609375 165.394531 148.90625 165.394531 148.09375 L 165.394531 131.550781 C 165.394531 130.175781 166.515625 129.027344 167.945312 129.027344 C 169.007812 129.027344 169.960938 129.671875 170.324219 130.597656 L 175.644531 143.777344 L 180.964844 130.597656 C 181.328125 129.644531 182.28125 129.027344 183.34375 129.027344 C 184.773438 129.027344 185.890625 130.175781 185.890625 131.550781 L 185.890625 148.09375 C 185.890625 148.90625 185.191406 149.609375 184.351562 149.609375 C 183.484375 149.609375 182.8125 148.933594 182.8125 148.09375 Z M 182.8125 148.09375 "/>
<path style=" stroke:none;fill-rule:nonzero;fill:rgb(100%,100%,100%);fill-opacity:1;" d="M 190.34375 147.871094 L 190.34375 130.792969 C 190.34375 129.757812 190.933594 129.167969 191.996094 129.167969 L 202.746094 129.167969 C 203.476562 129.167969 204.121094 129.785156 204.121094 130.542969 C 204.121094 131.269531 203.476562 131.859375 202.746094 131.859375 L 193.394531 131.859375 L 193.394531 137.804688 L 202.550781 137.804688 C 203.28125 137.804688 203.925781 138.390625 203.925781 139.121094 C 203.925781 139.878906 203.28125 140.496094 202.550781 140.496094 L 193.394531 140.496094 L 193.394531 146.832031 L 202.746094 146.832031 C 203.476562 146.832031 204.121094 147.421875 204.121094 148.148438 C 204.121094 148.90625 203.476562 149.523438 202.746094 149.523438 L 191.996094 149.523438 C 190.933594 149.46875 190.34375 148.878906 190.34375 147.871094 Z M 190.34375 147.871094 "/>
<path style=" stroke:none;fill-rule:nonzero;fill:rgb(100%,100%,100%);fill-opacity:1;" d="M 213.921875 147.28125 C 213.921875 146.496094 214.535156 145.878906 215.292969 145.878906 C 215.570312 145.878906 215.851562 145.960938 216.046875 146.128906 C 216.777344 146.746094 217.617188 147.140625 218.765625 147.140625 C 221.117188 147.140625 222.570312 145.570312 222.570312 143.1875 L 222.570312 130.570312 C 222.570312 129.757812 223.273438 129.054688 224.085938 129.054688 C 224.925781 129.054688 225.597656 129.757812 225.597656 130.570312 L 225.597656 143.214844 C 225.597656 147.730469 222.738281 149.859375 218.960938 149.859375 C 217.253906 149.859375 215.796875 149.4375 214.480469 148.402344 C 214.144531 148.121094 213.921875 147.730469 213.921875 147.28125 Z M 213.921875 147.28125 "/>
<path style=" stroke:none;fill-rule:nonzero;fill:rgb(100%,100%,100%);fill-opacity:1;" d="M 246.429688 148.066406 C 246.429688 148.90625 245.726562 149.609375 244.886719 149.609375 C 244.214844 149.609375 243.65625 149.1875 243.460938 148.625 L 242.171875 145.261719 L 232.121094 145.261719 L 230.832031 148.625 C 230.609375 149.1875 230.046875 149.609375 229.402344 149.609375 C 228.5625 149.609375 227.863281 148.90625 227.863281 148.066406 C 227.863281 147.871094 227.921875 147.671875 227.976562 147.476562 L 234.667969 130.710938 C 235.03125 129.730469 236.011719 129 237.132812 129 C 238.28125 129 239.230469 129.730469 239.625 130.710938 L 246.316406 147.476562 C 246.34375 147.644531 246.429688 147.871094 246.429688 148.066406 Z M 241.164062 142.570312 L 237.132812 131.832031 L 233.128906 142.570312 Z M 241.164062 142.570312 "/>
<path style=" stroke:none;fill-rule:nonzero;fill:rgb(100%,100%,100%);fill-opacity:1;" d="M 266.953125 148.09375 L 266.953125 133.347656 L 260.566406 149.046875 C 260.429688 149.410156 260.121094 149.636719 259.757812 149.636719 C 259.363281 149.636719 259.054688 149.410156 258.945312 149.046875 L 252.558594 133.347656 L 252.558594 148.09375 C 252.558594 148.90625 251.886719 149.609375 251.074219 149.609375 C 250.234375 149.609375 249.535156 148.90625 249.535156 148.09375 L 249.535156 131.550781 C 249.535156 130.175781 250.65625 129.027344 252.085938 129.027344 C 253.148438 129.027344 254.101562 129.671875 254.464844 130.597656 L 259.785156 143.777344 L 265.105469 130.597656 C 265.46875 129.644531 266.421875 129.027344 267.484375 129.027344 C 268.910156 129.027344 270.03125 130.175781 270.03125 131.550781 L 270.03125 148.09375 C 270.03125 148.90625 269.332031 149.609375 268.492188 149.609375 C 267.625 149.609375 266.953125 148.933594 266.953125 148.09375 Z M 266.953125 148.09375 "/>
<path style=" stroke:none;fill-rule:evenodd;fill:rgb(100%,100%,100%);fill-opacity:1;" d="M 190.734375 57.925781 C 190.734375 89.691406 165.339844 114.8125 133.644531 114.8125 C 101.949219 114.8125 76.214844 89.46875 76.214844 57.699219 C 76.214844 25.933594 101.753906 0.140625 133.449219 0.140625 C 165.144531 0.140625 190.734375 26.1875 190.734375 57.925781 Z M 190.734375 57.925781 "/>
<path style=" stroke:none;fill-rule:evenodd;fill:rgb(13.333334%,66.274512%,87.843138%);fill-opacity:1;" d="M 82.515625 60.28125 C 81.957031 54.898438 77.925781 52.933594 77.390625 45.730469 C 76.609375 49.515625 76.1875 53.46875 76.1875 57.476562 C 76.1875 65.382812 77.785156 72.925781 80.695312 79.792969 C 79.742188 71.074219 83.273438 67.375 82.515625 60.28125 Z M 82.515625 60.28125 "/>
<path style=" stroke:none;fill-rule:evenodd;fill:rgb(13.333334%,66.274512%,87.843138%);fill-opacity:1;" d="M 105.253906 7.570312 C 98.503906 11.410156 92.597656 16.570312 87.890625 22.738281 C 98.699219 13.597656 109.59375 14.777344 111.523438 13.09375 C 113.988281 10.933594 103.265625 10.066406 103.265625 10.066406 C 103.265625 10.066406 103.683594 8.972656 105.253906 7.570312 Z M 105.253906 7.570312 "/>
<path style=" stroke:none;fill-rule:evenodd;fill:rgb(13.333334%,66.274512%,87.843138%);fill-opacity:1;" d="M 150.808594 108.980469 C 139.441406 103.148438 147.699219 94.738281 150.890625 91.625 C 154.085938 88.515625 163.378906 78.589844 155.875 70.90625 C 148.371094 63.222656 147.253906 54.757812 151.285156 46.90625 C 155.316406 39.054688 163.238281 40.765625 167.691406 44.328125 C 172.144531 47.914062 178.640625 54.085938 181.945312 52.121094 C 187.097656 48.980469 181.804688 42.449219 181.804688 42.449219 C 181.804688 42.449219 181.609375 49.066406 180.152344 49.066406 C 178.667969 49.066406 178.386719 42.027344 177.40625 41.382812 C 174.609375 40.347656 176.371094 46.570312 171.246094 43.765625 C 166.125 40.960938 167.972656 34.289062 170.296875 31.402344 C 172.621094 28.515625 176.511719 32.832031 177.574219 33.757812 C 178.613281 34.683594 180.65625 35.746094 182.953125 35.746094 C 184.574219 35.746094 188.105469 43.878906 190.035156 48.671875 C 185.78125 21.195312 162.0625 0.167969 133.449219 0.167969 C 128.546875 0.167969 123.789062 0.785156 119.222656 1.960938 C 121.101562 1.625 123.199219 1.347656 125.550781 1.175781 C 145.011719 -0.390625 151.5625 4.683594 150.949219 7.207031 C 150.332031 9.730469 149.632812 10.960938 147.140625 10.710938 C 144.675781 10.457031 142.128906 9.476562 140.589844 11.46875 C 139.046875 13.484375 137.535156 13.234375 135.996094 12.589844 C 134.457031 11.945312 133.390625 12.449219 132.441406 13.878906 C 131.488281 15.308594 129.445312 19.234375 127.933594 17.746094 C 126.421875 16.261719 126.699219 16.933594 127.175781 15.476562 C 127.652344 13.992188 129.667969 12.449219 128.742188 12.308594 C 127.820312 12.167969 118.046875 12 111.46875 18.953125 C 118.691406 18.953125 128.015625 20.300781 126.476562 31.457031 C 124.9375 42.617188 115.753906 48.085938 105.839844 56.523438 C 95.929688 64.960938 84.449219 83.972656 97.496094 96.253906 C 95.003906 96.503906 92.625 96.222656 90.46875 95.355469 C 100.96875 107.328125 116.339844 114.871094 133.503906 114.871094 C 141.429688 114.871094 148.988281 113.242188 155.875 110.328125 C 154.054688 110.1875 152.347656 109.765625 150.808594 108.980469 Z M 134.539062 19.824219 C 132.886719 22.792969 130.003906 22.625 129.21875 22.148438 C 128.4375 21.671875 128.15625 21.757812 130.425781 19.738281 C 132.691406 17.71875 136.191406 16.851562 134.539062 19.824219 Z M 134.539062 19.824219 "/>
<path style=" stroke:none;fill-rule:evenodd;fill:rgb(95.294118%,92.156863%,20%);fill-opacity:1;" d="M 199.164062 58.207031 C 195.691406 57.671875 192.304688 57.699219 190.707031 57.757812 C 190.707031 57.8125 190.707031 57.871094 190.707031 57.925781 C 190.707031 61.148438 190.429688 64.316406 189.925781 67.402344 C 191.492188 67.261719 195.074219 67.09375 199.136719 68.101562 C 217.363281 73.347656 215.992188 95.496094 195.410156 95.496094 C 147.027344 95.496094 128.128906 10.992188 83.046875 10.992188 C 63.867188 10.992188 48.550781 24.335938 48.550781 38.777344 C 48.550781 51.671875 56.867188 66.335938 75.402344 69.390625 L 77.476562 69.730469 C 76.777344 66.5625 76.355469 63.28125 76.214844 59.945312 L 75.402344 59.832031 C 47.265625 54.222656 56.195312 19.851562 82.402344 19.851562 C 122.078125 19.851562 141.148438 104.4375 195.972656 104.4375 C 207.089844 104.4375 221.394531 97.960938 221.394531 82.992188 C 221.425781 70.207031 211.988281 60.53125 199.164062 58.207031 Z M 199.164062 58.207031 "/>
<path style=" stroke:none;fill-rule:nonzero;fill:rgb(100%,100%,100%);fill-opacity:1;" d="M 276.386719 128.832031 C 278.402344 128.832031 280 130.429688 280 132.449219 C 280 134.4375 278.402344 136.066406 276.386719 136.066406 C 274.398438 136.066406 272.777344 134.4375 272.777344 132.449219 C 272.804688 130.429688 274.398438 128.832031 276.386719 128.832031 Z M 276.386719 129.335938 C 274.679688 129.335938 273.28125 130.710938 273.28125 132.421875 C 273.28125 134.128906 274.679688 135.53125 276.386719 135.53125 C 278.097656 135.53125 279.46875 134.128906 279.46875 132.421875 C 279.496094 130.710938 278.125 129.335938 276.386719 129.335938 Z M 276.445312 132.898438 L 275.574219 132.898438 L 275.574219 134.328125 C 275.574219 134.46875 275.464844 134.609375 275.324219 134.609375 C 275.15625 134.609375 275.042969 134.496094 275.042969 134.328125 L 275.042969 130.738281 C 275.042969 130.542969 275.183594 130.402344 275.378906 130.402344 L 276.722656 130.402344 C 277.425781 130.402344 278.039062 130.90625 278.039062 131.664062 C 278.039062 132.476562 277.394531 132.8125 277.117188 132.871094 L 278.011719 134.1875 C 278.039062 134.242188 278.066406 134.300781 278.066406 134.328125 C 278.066406 134.496094 277.929688 134.636719 277.761719 134.636719 C 277.648438 134.636719 277.5625 134.578125 277.507812 134.496094 Z M 276.695312 130.878906 L 275.546875 130.878906 L 275.546875 132.363281 L 276.695312 132.363281 C 277.058594 132.363281 277.453125 132.054688 277.453125 131.636719 C 277.453125 131.1875 277.058594 130.878906 276.695312 130.878906 Z M 276.695312 130.878906 "/>
</g>
</svg>
