<?xml version="1.0" encoding="UTF-8"?>
<!-- Generator: visioncortex VTracer 0.6.3 -->
<svg version="1.1" xmlns="http://www.w3.org/2000/svg" width="200" height="201">
<path d="M0 0 C66 0 132 0 200 0 C200 66.33 200 132.66 200 201 C134 201 68 201 0 201 C0 134.67 0 68.34 0 0 Z " fill="#5E4F49" transform="translate(0,0)"/>
<path d="M0 0 C52.09 0 52.09 0 64 10.82 C73.46 20.91 76.54 32.58 76.31 46.12 C75.36 58.08 70.44 68.02 61.81 76.31 C44.74 89.94 19.3 85 0 85 C0 56.95 0 28.9 0 0 Z " fill="#FD8F36" transform="translate(104,23)"/>
<path d="M0 0 C10.56 0 21.12 0 32 0 C32.33 16.83 32.66 33.66 33 51 C42.57 51.33 52.14 51.66 62 52 C62 62.89 62 73.78 62 85 C54.14 85.09 54.14 85.09 46.12 85.19 C43.68 85.23 43.68 85.23 41.18 85.27 C29.31 85.34 20.03 84.22 11 76 C10.05 75.15 10.05 75.15 9.09 74.29 C1.31 66.46 -0.46 55.83 -0.45 45.14 C-0.43 44.01 -0.41 42.87 -0.39 41.7 C-0.38 40.5 -0.38 39.29 -0.37 38.06 C-0.35 34.27 -0.3 30.48 -0.25 26.69 C-0.23 24.1 -0.21 21.51 -0.2 18.92 C-0.15 12.61 -0.08 6.31 0 0 Z " fill="#FA513C" transform="translate(25,23)"/>
<path d="M0 0 C4.95 0 9.9 0 15 0 C15 7.59 15 15.18 15 23 C19.62 23 24.24 23 29 23 C29 28.28 29 33.56 29 39 C26.52 39.5 26.52 39.5 24 40 C24.91 40.52 25.81 41.03 26.75 41.56 C30.38 44.06 32.73 46.75 34 51 C34.71 57.18 34.99 62.84 32.38 68.56 C24.32 76.83 24.32 76.83 18.73 77.11 C17.44 77.11 17.44 77.11 16.11 77.1 C15.27 77.1 14.42 77.09 13.55 77.09 C12.48 77.08 11.41 77.07 10.31 77.06 C5.21 77.03 5.21 77.03 0 77 C0 64.46 0 51.92 0 39 C5.45 38.5 5.45 38.5 11 38 C9.89 37.38 9.89 37.38 8.75 36.75 C4.16 33.83 1.69 31.19 0 26 C-0.23 23.05 -0.23 23.05 -0.2 19.82 C-0.19 18.67 -0.18 17.51 -0.18 16.32 C-0.16 15.12 -0.14 13.92 -0.12 12.69 C-0.12 11.47 -0.11 10.25 -0.1 9 C-0.07 6 -0.04 3 0 0 Z " fill="#FC8F36" transform="translate(10,114)"/>
<path d="M0 0 C0.71 0.32 1.42 0.65 2.16 0.98 C2.82 0.32 3.48 -0.34 4.16 -1.02 C9.69 -1.73 14.64 -1.74 19.72 0.67 C22.91 3.7 24.96 5.91 25.39 10.45 C25.45 13.4 25.42 16.34 25.34 19.29 C25.32 20.83 25.32 20.83 25.3 22.4 C25.27 24.93 25.21 27.46 25.16 29.98 C20.87 29.98 16.58 29.98 12.16 29.98 C11.83 24.37 11.5 18.76 11.16 12.98 C10.17 12.65 9.18 12.32 8.16 11.98 C8.16 17.92 8.16 23.86 8.16 29.98 C3.54 29.98 -1.08 29.98 -5.84 29.98 C-6.17 24.37 -6.5 18.76 -6.84 12.98 C-7.5 12.98 -8.16 12.98 -8.84 12.98 C-9.17 18.59 -9.5 24.2 -9.84 29.98 C-14.13 29.98 -18.42 29.98 -22.84 29.98 C-22.95 26.44 -23.03 22.9 -23.09 19.36 C-23.13 18.36 -23.16 17.36 -23.2 16.33 C-23.28 10.18 -22.95 6.66 -18.84 1.98 C-13.9 -2.52 -6.03 -2.16 0 0 Z " fill="#F9523D" transform="translate(163.84375,122.01953125)"/>
<path d="M0 0 C4.62 0 9.24 0 14 0 C14.08 4.19 14.14 8.37 14.19 12.56 C14.21 13.74 14.24 14.93 14.26 16.14 C14.37 29.17 14.37 29.17 9.46 34.74 C3.47 39.19 -0.57 39.75 -8 39 C-12.86 36.7 -15.73 33.88 -18 29 C-18.75 23.4 -18.77 18.67 -16.38 13.5 C-11.25 8.1 -7.24 6.5 0 6 C0 4.02 0 2.04 0 0 Z " fill="#F9523D" transform="translate(92,114)"/>
<path d="M0 0 C4.62 0 9.24 0 14 0 C14 5.94 14 11.88 14 18 C15.32 18 16.64 18 18 18 C18 12.06 18 6.12 18 0 C22.62 0 27.24 0 32 0 C32.08 3.38 32.14 6.75 32.19 10.12 C32.21 11.08 32.24 12.03 32.26 13.01 C32.32 18.44 32.12 22.33 29 27 C23.85 31.76 19.61 32.42 12.8 32.34 C8.59 31.83 5.75 30.21 3 27 C-0.67 21.53 -0.35 16.46 -0.19 10.12 C-0.17 9.15 -0.16 8.18 -0.15 7.17 C-0.11 4.78 -0.06 2.39 0 0 Z " fill="#F5523D" transform="translate(40,121)"/>
<path d="M0 0 C5.17 2.6 7.93 6.68 10 12 C10.34 15.3 10.28 18.56 10.19 21.88 C10.17 23.19 10.17 23.19 10.15 24.54 C10.11 26.69 10.06 28.85 10 31 C6.83 31.15 3.67 31.23 0.5 31.31 C-0.39 31.35 -1.27 31.4 -2.19 31.44 C-8.71 31.56 -13.05 30.35 -18 26 C-21.55 21.57 -21.67 17.54 -21.56 12.02 C-20.64 7.08 -17.8 4.14 -14 1 C-9.76 -1.12 -4.59 -0.62 0 0 Z " fill="#FA8E36" transform="translate(67,160)"/>
<path d="M0 0 C4.62 0 9.24 0 14 0 C14.33 5.61 14.66 11.22 15 17 C15.99 17 16.98 17 18 17 C18.33 11.72 18.66 6.44 19 1 C23.29 1 27.58 1 32 1 C32.08 4.21 32.14 7.42 32.19 10.62 C32.21 11.53 32.24 12.43 32.26 13.36 C32.32 18.69 32.02 22.41 29 27 C24.04 31.59 20.07 32.36 13.5 32.28 C8.6 31.73 5.92 28.99 2.69 25.5 C0.22 21.84 -0.13 18.81 -0.1 14.45 C-0.09 13.61 -0.09 12.76 -0.09 11.89 C-0.08 11.02 -0.07 10.15 -0.06 9.25 C-0.06 8.36 -0.05 7.47 -0.05 6.56 C-0.04 4.37 -0.02 2.19 0 0 Z " fill="#F8523D" transform="translate(107,121)"/>
<path d="M0 0 C3.34 3.09 6.28 5.82 6.8 10.54 C6.81 12.49 6.7 14.43 6.56 16.38 C1.61 16.87 1.61 16.87 -3.44 17.38 C-2.72 18.16 -1.99 18.94 -1.25 19.75 C-0.31 20.77 0.63 21.79 1.56 22.81 C2.04 23.33 2.52 23.85 3.01 24.38 C6.56 28.26 6.56 28.26 6.56 29.38 C3.54 29.48 0.52 29.56 -2.5 29.62 C-3.35 29.66 -4.2 29.69 -5.07 29.73 C-11.1 29.82 -14.5 28.88 -19.44 25.38 C-23.46 21.04 -24.86 17.55 -24.79 11.57 C-23.99 6.56 -20.92 2.77 -17.31 -0.62 C-11.45 -2.66 -5.61 -2.65 0 0 Z " fill="#FB8E36" transform="translate(122.4375,161.625)"/>
<path d="M0 0 C4.95 0 9.9 0 15 0 C15 7.59 15 15.18 15 23 C19.62 23 24.24 23 29 23 C29 28.28 29 33.56 29 39 C21.11 40.45 12.87 40.28 5.97 35.64 C2.12 31.99 0.18 28.3 -0.23 23.05 C-0.22 21.98 -0.21 20.92 -0.2 19.82 C-0.19 18.67 -0.18 17.51 -0.18 16.32 C-0.16 15.12 -0.14 13.92 -0.12 12.69 C-0.12 11.47 -0.11 10.25 -0.1 9 C-0.07 6 -0.04 3 0 0 Z " fill="#F4523D" transform="translate(10,114)"/>
<path d="M0 0 C0 4.29 0 8.58 0 13 C-1.65 13.33 -3.3 13.66 -5 14 C-5.33 19.61 -5.66 25.22 -6 31 C-10.29 31 -14.58 31 -19 31 C-19.16 27.48 -19.28 23.96 -19.38 20.44 C-19.43 19.45 -19.48 18.46 -19.53 17.44 C-19.63 12.29 -19.52 8.91 -16.12 4.88 C-11.17 -0.11 -6.74 -0.23 0 0 Z " fill="#FC8F36" transform="translate(97,160)"/>
<path d="M0 0 C8 0 8 0 10.44 1.88 C13.29 5.76 13.16 8.13 12.56 12.8 C12 15 12 15 9.88 17.56 C7 19 7 19 0 19 C0 12.73 0 6.46 0 0 Z " fill="#5D5049" transform="translate(135,56)"/>
<path d="M0 0 C2.48 0.5 2.48 0.5 5 1 C5.62 3.88 5.62 3.88 6 7 C5.34 7.66 4.68 8.32 4 9 C2.68 9 1.36 9 0 9 C0 6.03 0 3.06 0 0 Z " fill="#665348" transform="translate(24,167)"/>
<path d="M0 0 C0.33 0 0.66 0 1 0 C1 3.3 1 6.6 1 10 C-2.3 10 -5.6 10 -9 10 C-7.68 9.01 -6.36 8.02 -5 7 C-2.38 4.6 -1.14 3.41 0 0 Z " fill="#F7F6F6" transform="translate(199,191)"/>
<path d="M0 0 C2.97 0 5.94 0 9 0 C6 3 3 6 0 9 C0 6.03 0 3.06 0 0 Z " fill="#F6F6F5" transform="translate(0,0)"/>
<path d="M0 0 C0.99 1.32 1.98 2.64 3 4 C4.31 5.35 5.64 6.69 7 8 C7.66 8.66 8.32 9.32 9 10 C6.03 10 3.06 10 0 10 C0 6.7 0 3.4 0 0 Z " fill="#F9F8F8" transform="translate(0,191)"/>
<path d="M0 0 C3.3 0 6.6 0 10 0 C10 2.97 10 5.94 10 9 C9.46 8.24 8.93 7.47 8.38 6.69 C5.8 3.77 3.54 2.53 0 1 C0 0.67 0 0.34 0 0 Z " fill="#F9F8F8" transform="translate(190,0)"/>
<path d="M0 0 C1.32 0 2.64 0 4 0 C4 1.65 4 3.3 4 5 C2.68 5.33 1.36 5.66 0 6 C-0.38 4.34 -0.71 2.68 -1 1 C-0.67 0.67 -0.34 0.34 0 0 Z " fill="#6A5049" transform="translate(88,134)"/>
<path d="M0 0 C1.32 0 2.64 0 4 0 C3.67 1.65 3.34 3.3 3 5 C1.68 4.67 0.36 4.34 -1 4 C-0.67 2.68 -0.34 1.36 0 0 Z " fill="#655348" transform="translate(112,173)"/>
<path d="M0 0 C1.32 0 2.64 0 4 0 C4 1.65 4 3.3 4 5 C2.68 4.67 1.36 4.34 0 4 C0 2.68 0 1.36 0 0 Z " fill="#615149" transform="translate(59,173)"/>
</svg>
